# xmcd
#
# Track frame offsets:
#	150
#	13755
#	30252
#	51600
#	71697
#	90390
#	105025
#	117865
#	129802
#	142625
#	156075
#	167285
#	184535
#	203135
#	215280
#	237185
#
# Disc length: 3500 seconds
#
# Revision: 1
# Processed by: cddbd v1.4b41PL1 Copyright (c) Steve Scherf et al.
# Submitted via: audiograbber 1.80
#
DISCID=bb0daa10
DTITLE=John Denver - The John Denver Story
DYEAR=1900
DGENRE=
TTITLE0=Annie's Song
TTITLE1=Leaving, On A Jet Plane
TTITLE2=Back Home Again
TTITLE3=My Sweet Lady
TTITLE4=Rocky Mountain High
TTITLE5=Take Me Home, Country Roads
TTITLE6=This Old Guitar
TTITLE7=Love Again
TTITLE8=Thank God I'm A Country Boy (Live)
TTITLE9=For Baby (For Bobbie)
TTITLE10=Follow Me
TTITLE11=Calypso
TTITLE12=Poems, Prayers And Promises
TTITLE13=Perhaps Love
TTITLE14=Sunshine On My Shoulders
TTITLE15=Flying For Me
EXTD=Compilation produced by Paul Williams for House of Hits Productions, LTD.
EXTT0=
EXTT1=
EXTT2=
EXTT3=
EXTT4=
EXTT5=
EXTT6=
EXTT7=
EXTT8=
EXTT9=
EXTT10=
EXTT11=
EXTT12=
EXTT13=
EXTT14=
EXTT15=
PLAYORDER=
